<svg width="18" height="16" viewBox="0 0 18 16" fill="none" xmlns="http://www.w3.org/2000/svg">
<path d="M17.0407 14.743C15.8508 12.6859 14.0172 11.2109 11.8774 10.5117C12.9358 9.88159 13.7582 8.92145 14.2182 7.77873C14.6781 6.63601 14.7503 5.37389 14.4235 4.1862C14.0968 2.99851 13.3892 1.95092 12.4094 1.2043C11.4296 0.457686 10.2318 0.0533295 9.00003 0.0533295C7.76821 0.0533295 6.57044 0.457686 5.59067 1.2043C4.6109 1.95092 3.90331 2.99851 3.57654 4.1862C3.24978 5.37389 3.32193 6.63601 3.78189 7.77873C4.24186 8.92145 5.06422 9.88159 6.12268 10.5117C3.98284 11.2101 2.14925 12.6851 0.959403 14.743C0.91577 14.8141 0.886828 14.8933 0.874285 14.9758C0.861743 15.0583 0.865854 15.1425 0.886376 15.2234C0.906897 15.3043 0.943414 15.3803 0.993772 15.4468C1.04413 15.5134 1.10731 15.5692 1.17958 15.6109C1.25185 15.6527 1.33175 15.6795 1.41457 15.6899C1.49738 15.7002 1.58143 15.6939 1.66176 15.6713C1.74209 15.6486 1.81708 15.6101 1.88228 15.558C1.94749 15.5059 2.00161 15.4413 2.04143 15.368C3.51331 12.8242 6.11487 11.3055 9.00003 11.3055C11.8852 11.3055 14.4867 12.8242 15.9586 15.368C15.9985 15.4413 16.0526 15.5059 16.1178 15.558C16.183 15.6101 16.258 15.6486 16.3383 15.6713C16.4186 15.6939 16.5027 15.7002 16.5855 15.6899C16.6683 15.6795 16.7482 15.6527 16.8205 15.6109C16.8927 15.5692 16.9559 15.5134 17.0063 15.4468C17.0566 15.3803 17.0932 15.3043 17.1137 15.2234C17.1342 15.1425 17.1383 15.0583 17.1258 14.9758C17.1132 14.8933 17.0843 14.8141 17.0407 14.743ZM4.62503 5.68046C4.62503 4.81516 4.88162 3.9693 5.36235 3.24984C5.84308 2.53037 6.52636 1.96962 7.32579 1.63848C8.12522 1.30735 9.00488 1.22071 9.85355 1.38952C10.7022 1.55833 11.4818 1.97501 12.0936 2.58686C12.7055 3.19872 13.1222 3.97827 13.291 4.82693C13.4598 5.6756 13.3731 6.55527 13.042 7.3547C12.7109 8.15412 12.1501 8.8374 11.4306 9.31813C10.7112 9.79887 9.86532 10.0555 9.00003 10.0555C7.84009 10.0542 6.72801 9.59288 5.90781 8.77268C5.0876 7.95247 4.62627 6.8404 4.62503 5.68046Z" fill="white"/>
</svg>
