<svg width="16" height="12" viewBox="0 0 16 12" fill="none" xmlns="http://www.w3.org/2000/svg">
<path d="M8.00016 3.5C7.5057 3.5 7.02235 3.64662 6.61123 3.92133C6.20011 4.19603 5.87968 4.58648 5.69046 5.04329C5.50124 5.50011 5.45173 6.00277 5.54819 6.48773C5.64466 6.97268 5.88276 7.41814 6.23239 7.76777C6.58202 8.1174 7.02748 8.3555 7.51243 8.45196C7.99738 8.54843 8.50005 8.49892 8.95686 8.3097C9.41368 8.12048 9.80413 7.80005 10.0788 7.38893C10.3535 6.9778 10.5002 6.49445 10.5002 6C10.5002 5.33696 10.2368 4.70107 9.76792 4.23223C9.29908 3.76339 8.6632 3.5 8.00016 3.5ZM8.00016 7.5C7.70348 7.5 7.41347 7.41203 7.1668 7.2472C6.92013 7.08238 6.72787 6.84811 6.61434 6.57402C6.5008 6.29994 6.4711 5.99834 6.52898 5.70736C6.58686 5.41639 6.72972 5.14912 6.9395 4.93934C7.14927 4.72956 7.41655 4.5867 7.70752 4.52882C7.99849 4.47094 8.30009 4.50065 8.57418 4.61418C8.84827 4.72771 9.08254 4.91997 9.24736 5.16664C9.41218 5.41332 9.50016 5.70333 9.50016 6C9.50016 6.39782 9.34212 6.77936 9.06082 7.06066C8.77951 7.34196 8.39798 7.5 8.00016 7.5ZM12.607 7.94625C12.3922 8.45411 12.0949 8.92294 11.727 9.33375C11.638 9.43013 11.5146 9.48762 11.3835 9.49383C11.2524 9.50004 11.1241 9.45446 11.0264 9.36694C10.9286 9.27941 10.8691 9.15695 10.8608 9.02598C10.8525 8.89501 10.8961 8.76603 10.982 8.66687C11.6386 7.93384 12.0016 6.98437 12.0016 6.00031C12.0016 5.01626 11.6386 4.06679 10.982 3.33375C10.937 3.28504 10.9021 3.22785 10.8794 3.16553C10.8567 3.10321 10.8467 3.03699 10.8498 2.97073C10.8529 2.90448 10.8692 2.83951 10.8977 2.77961C10.9262 2.71971 10.9663 2.66608 11.0157 2.62184C11.0652 2.5776 11.1229 2.54364 11.1856 2.52193C11.2483 2.50022 11.3146 2.4912 11.3808 2.49539C11.447 2.49958 11.5117 2.5169 11.5712 2.54634C11.6306 2.57578 11.6836 2.61676 11.727 2.66687C12.3584 3.37334 12.7762 4.24449 12.932 5.17905C13.0878 6.11362 12.9751 7.0732 12.607 7.94625ZM4.31266 4.44312C4.01764 5.14148 3.92716 5.90929 4.05176 6.6571C4.17636 7.4049 4.5109 8.1019 5.01641 8.66687C5.10237 8.76603 5.1459 8.89501 5.1376 9.02598C5.12931 9.15695 5.06986 9.27941 4.97208 9.36694C4.8743 9.45446 4.74603 9.50004 4.61495 9.49383C4.48386 9.48762 4.36047 9.43013 4.27141 9.33375C3.45052 8.41747 2.9966 7.23052 2.9966 6.00031C2.9966 4.7701 3.45052 3.58315 4.27141 2.66687C4.35984 2.56783 4.48399 2.50798 4.61656 2.50048C4.74912 2.49297 4.87924 2.53844 4.97828 2.62687C5.07732 2.71531 5.13718 2.83946 5.14468 2.97203C5.15218 3.10459 5.10671 3.23471 5.01828 3.33375C4.72328 3.66193 4.48483 4.03682 4.31266 4.44312ZM15.5002 6C15.5032 7.96358 14.7333 9.84948 13.357 11.25C13.3115 11.2987 13.2567 11.3378 13.1958 11.365C13.135 11.3922 13.0693 11.4069 13.0026 11.4083C12.936 11.4098 12.8697 11.3979 12.8078 11.3733C12.7458 11.3488 12.6894 11.3121 12.6418 11.2654C12.5942 11.2188 12.5564 11.163 12.5307 11.1016C12.5049 11.0401 12.4917 10.9741 12.4919 10.9074C12.492 10.8407 12.5055 10.7748 12.5315 10.7134C12.5575 10.652 12.5955 10.5965 12.6433 10.55C13.835 9.33585 14.5026 7.70252 14.5026 6.00125C14.5026 4.29998 13.835 2.66665 12.6433 1.4525C12.5501 1.35785 12.4984 1.23007 12.4994 1.09727C12.5005 0.964473 12.5543 0.837532 12.6489 0.744375C12.7436 0.651217 12.8713 0.599475 13.0041 0.60053C13.1369 0.601585 13.2639 0.655351 13.357 0.75C14.7333 2.15052 15.5032 4.03642 15.5002 6ZM3.35703 10.5487C3.40308 10.5956 3.43944 10.6511 3.46404 10.712C3.48865 10.7729 3.50101 10.8381 3.50043 10.9038C3.49985 10.9695 3.48634 11.0344 3.46066 11.0949C3.43498 11.1554 3.39765 11.2102 3.35078 11.2563C3.30392 11.3023 3.24844 11.3387 3.18752 11.3633C3.1266 11.3879 3.06143 11.4002 2.99574 11.3997C2.93004 11.3991 2.8651 11.3856 2.80462 11.3599C2.74415 11.3342 2.68933 11.2969 2.64328 11.25C1.26715 9.84904 0.496094 7.96378 0.496094 6C0.496094 4.03622 1.26715 2.15095 2.64328 0.75C2.68881 0.701317 2.74362 0.662231 2.80448 0.635039C2.86534 0.607847 2.93102 0.593099 2.99766 0.591661C3.06431 0.590224 3.13056 0.602126 3.19254 0.626668C3.25451 0.65121 3.31096 0.687897 3.35855 0.73457C3.40614 0.781243 3.44391 0.836961 3.46966 0.898447C3.4954 0.959934 3.50859 1.02595 3.50845 1.0926C3.50831 1.15926 3.49484 1.22522 3.46883 1.28659C3.44283 1.34797 3.40482 1.40353 3.35703 1.45C2.16532 2.66415 1.49768 4.29748 1.49768 5.99875C1.49768 7.70002 2.16532 9.33335 3.35703 10.5475V10.5487Z" fill="#000"/>
</svg>
