<svg width="20" height="20" viewBox="0 0 20 20" fill="none" xmlns="http://www.w3.org/2000/svg">
<path d="M16.875 10C16.875 11.3597 16.4718 12.689 15.7164 13.8195C14.9609 14.9501 13.8872 15.8313 12.631 16.3517C11.3747 16.872 9.99238 17.0082 8.65876 16.7429C7.32514 16.4776 6.10013 15.8228 5.13864 14.8614C4.17716 13.8999 3.52238 12.6749 3.2571 11.3412C2.99183 10.0076 3.12798 8.62529 3.64833 7.36905C4.16868 6.11281 5.04987 5.03908 6.18046 4.28365C7.31105 3.52821 8.64026 3.125 10 3.125C11.8234 3.125 13.5721 3.84933 14.8614 5.13864C16.1507 6.42795 16.875 8.17664 16.875 10Z" fill="white" fill-opacity="0.1"/>
<path d="M10.625 6.24999V9.64609L13.4469 11.3391C13.589 11.4244 13.6914 11.5628 13.7316 11.7236C13.7717 11.8845 13.7463 12.0547 13.6609 12.1969C13.5756 12.339 13.4372 12.4414 13.2764 12.4816C13.1155 12.5217 12.9453 12.4963 12.8031 12.4109L9.67812 10.5359C9.58563 10.4804 9.50911 10.4018 9.45599 10.3079C9.40287 10.214 9.37497 10.1079 9.375 9.99999V6.24999C9.375 6.08423 9.44085 5.92526 9.55806 5.80805C9.67527 5.69084 9.83424 5.62499 10 5.62499C10.1658 5.62499 10.3247 5.69084 10.4419 5.80805C10.5592 5.92526 10.625 6.08423 10.625 6.24999ZM10 2.49999C9.01406 2.49754 8.03742 2.69064 7.12661 3.06814C6.21579 3.44563 5.38889 4.00002 4.69375 4.69921C4.12578 5.27421 3.62109 5.82734 3.125 6.40624V4.99999C3.125 4.83423 3.05915 4.67526 2.94194 4.55805C2.82473 4.44084 2.66576 4.37499 2.5 4.37499C2.33424 4.37499 2.17527 4.44084 2.05806 4.55805C1.94085 4.67526 1.875 4.83423 1.875 4.99999V8.12499C1.875 8.29075 1.94085 8.44972 2.05806 8.56693C2.17527 8.68414 2.33424 8.74999 2.5 8.74999H5.625C5.79076 8.74999 5.94973 8.68414 6.06694 8.56693C6.18415 8.44972 6.25 8.29075 6.25 8.12499C6.25 7.95923 6.18415 7.80026 6.06694 7.68305C5.94973 7.56584 5.79076 7.49999 5.625 7.49999H3.82812C4.38672 6.84218 4.94297 6.22265 5.57734 5.58046C6.44598 4.71183 7.55133 4.11844 8.75529 3.87443C9.95924 3.63042 11.2084 3.74662 12.3467 4.2085C13.485 4.67038 14.4619 5.45746 15.1555 6.47141C15.849 7.48535 16.2283 8.68118 16.2461 9.90948C16.2639 11.1378 15.9193 12.3441 15.2554 13.3777C14.5915 14.4113 13.6377 15.2263 12.5132 15.7209C11.3888 16.2155 10.1435 16.3678 8.93299 16.1587C7.72249 15.9496 6.60043 15.3884 5.70703 14.5453C5.64732 14.4889 5.57708 14.4448 5.50032 14.4155C5.42356 14.3862 5.34179 14.3723 5.25967 14.3746C5.17754 14.377 5.09668 14.3954 5.0217 14.429C4.94672 14.4626 4.87908 14.5106 4.82266 14.5703C4.76623 14.63 4.72212 14.7003 4.69283 14.777C4.66355 14.8538 4.64967 14.9355 4.652 15.0177C4.65432 15.0998 4.67279 15.1807 4.70636 15.2556C4.73993 15.3306 4.78795 15.3983 4.84766 15.4547C5.73785 16.2947 6.82012 16.9042 8 17.2298C9.17989 17.5554 10.4215 17.5872 11.6166 17.3226C12.8116 17.058 13.9237 16.5049 14.8559 15.7117C15.788 14.9184 16.5118 13.9091 16.9642 12.7717C17.4165 11.6344 17.5836 10.4036 17.4509 9.18686C17.3182 7.97008 16.8897 6.80428 16.2029 5.79119C15.516 4.7781 14.5916 3.94851 13.5104 3.37482C12.4292 2.80114 11.224 2.50079 10 2.49999Z" fill="white"/>
</svg>
