<svg width="16" height="16" viewBox="0 0 16 16" fill="none" xmlns="http://www.w3.org/2000/svg">
<path d="M2.34309 0.92888C1.95257 0.538355 1.3194 0.538355 0.92888 0.92888C0.538355 1.3194 0.538355 1.95257 0.92888 2.34309L6.58577 7.99999L0.928955 13.6568C0.538431 14.0473 0.53843 14.6805 0.928955 15.071C1.31948 15.4615 1.95264 15.4615 2.34317 15.071L7.99999 9.4142L13.6568 15.071C14.0473 15.4615 14.6805 15.4615 15.071 15.071C15.4615 14.6805 15.4615 14.0473 15.071 13.6568L9.4142 7.99999L15.0711 2.34309C15.4616 1.95257 15.4616 1.31941 15.0711 0.928881C14.6806 0.538357 14.0474 0.538357 13.6569 0.928881L7.99999 6.58577L2.34309 0.92888Z" fill="white"/>
</svg>
