<svg width="22" height="22" viewBox="0 0 22 22" fill="none" xmlns="http://www.w3.org/2000/svg">
<path d="M20.625 0.5H6.625C6.39294 0.5 6.17038 0.592187 6.00628 0.756282C5.84219 0.920376 5.75 1.14294 5.75 1.375V5.75H1.375C1.14294 5.75 0.920376 5.84219 0.756282 6.00628C0.592187 6.17038 0.5 6.39294 0.5 6.625V20.625C0.5 20.8571 0.592187 21.0796 0.756282 21.2437C0.920376 21.4078 1.14294 21.5 1.375 21.5H15.375C15.6071 21.5 15.8296 21.4078 15.9937 21.2437C16.1578 21.0796 16.25 20.8571 16.25 20.625V16.25H20.625C20.8571 16.25 21.0796 16.1578 21.2437 15.9937C21.4078 15.8296 21.5 15.6071 21.5 15.375V1.375C21.5 1.14294 21.4078 0.920376 21.2437 0.756282C21.0796 0.592187 20.8571 0.5 20.625 0.5ZM14.5 19.75H2.25V7.5H14.5V19.75ZM19.75 14.5H16.25V6.625C16.25 6.39294 16.1578 6.17038 15.9937 6.00628C15.8296 5.84219 15.6071 5.75 15.375 5.75H7.5V2.25H19.75V14.5Z" fill="white"/>
</svg>
