<svg width="20" height="11" viewBox="0 0 20 11" fill="none" xmlns="http://www.w3.org/2000/svg">
<path d="M19.375 8.40624C19.2893 8.45509 19.1948 8.48656 19.097 8.49886C18.9991 8.51116 18.8998 8.50405 18.8047 8.47793C18.7097 8.4518 18.6207 8.40718 18.5428 8.34662C18.465 8.28606 18.3999 8.21074 18.3512 8.12499L16.57 5.01249C15.5344 5.71269 14.392 6.24017 13.1875 6.57436L13.7378 9.87624C13.754 9.97344 13.7509 10.0729 13.7287 10.1689C13.7065 10.2649 13.6656 10.3556 13.6083 10.4358C13.551 10.516 13.4784 10.5841 13.3948 10.6362C13.3112 10.6884 13.2181 10.7235 13.1209 10.7397C13.0809 10.7462 13.0405 10.7497 13 10.75C12.8225 10.7497 12.6509 10.6866 12.5157 10.5717C12.3804 10.4569 12.2903 10.2978 12.2612 10.1228L11.7203 6.88092C10.5795 7.03967 9.42227 7.03967 8.28151 6.88092L7.74058 10.1228C7.71147 10.2982 7.62103 10.4575 7.48538 10.5723C7.34974 10.6872 7.1777 10.7502 6.99995 10.75C6.9585 10.7498 6.91712 10.7464 6.8762 10.7397C6.77898 10.7235 6.6859 10.6884 6.60227 10.6362C6.51864 10.5841 6.44611 10.516 6.38882 10.4358C6.33153 10.3556 6.29061 10.2649 6.26839 10.1689C6.24617 10.0729 6.24309 9.97344 6.25933 9.87624L6.81245 6.57436C5.60835 6.23911 4.46664 5.71068 3.43183 5.00967L1.6562 8.12499C1.55675 8.29829 1.39252 8.42498 1.19965 8.4772C1.00678 8.52942 0.801067 8.50288 0.627765 8.40342C0.454462 8.30397 0.327767 8.13974 0.27555 7.94687C0.223333 7.754 0.249871 7.54829 0.349327 7.37499L2.22433 4.09374C1.56573 3.52475 0.960125 2.89718 0.414952 2.21874C0.346964 2.14283 0.295158 2.05386 0.262698 1.95726C0.230238 1.86066 0.217804 1.75846 0.226156 1.65689C0.234507 1.55533 0.263469 1.45654 0.311273 1.36654C0.359077 1.27654 0.42472 1.19723 0.504196 1.13344C0.583672 1.06966 0.675313 1.02274 0.773525 0.995548C0.871737 0.968359 0.97446 0.961469 1.07542 0.9753C1.17639 0.98913 1.27347 1.02339 1.36075 1.07599C1.44804 1.12859 1.52368 1.19843 1.58308 1.28124C3.13933 3.20686 5.86183 5.49999 9.99995 5.49999C14.1381 5.49999 16.8606 3.20405 18.4168 1.28124C18.4755 1.19673 18.551 1.12522 18.6386 1.07113C18.7261 1.01705 18.8238 0.981565 18.9257 0.966877C19.0275 0.95219 19.1313 0.958617 19.2306 0.98576C19.3298 1.0129 19.4224 1.06018 19.5026 1.12465C19.5828 1.18912 19.6489 1.2694 19.6968 1.3605C19.7446 1.45161 19.7732 1.55158 19.7807 1.6542C19.7883 1.75683 19.7746 1.8599 19.7406 1.95702C19.7066 2.05414 19.653 2.14323 19.5831 2.21874C19.0379 2.89718 18.4323 3.52475 17.7737 4.09374L19.6487 7.37499C19.699 7.46052 19.7319 7.55519 19.7454 7.65352C19.7588 7.75184 19.7527 7.85186 19.7272 7.94779C19.7017 8.04371 19.6575 8.13362 19.597 8.21232C19.5366 8.29101 19.4611 8.35693 19.375 8.40624Z" fill="white" fill-opacity="0.4"/></svg>
