<svg width="20" height="21" viewBox="0 0 20 21" fill="none" xmlns="http://www.w3.org/2000/svg">
<path d="M12.5 1.43045C11.5135 1.43133 10.5412 1.66551 9.66254 2.11386C8.78384 2.5622 8.02363 3.21201 7.44398 4.01022C6.86433 4.80843 6.48167 5.73241 6.32725 6.70673C6.17284 7.68104 6.25104 8.67806 6.55547 9.61639L2.05781 14.1133C1.99979 14.1713 1.95378 14.2403 1.92241 14.3162C1.89105 14.392 1.87494 14.4734 1.875 14.5555V17.6805C1.875 17.8462 1.94085 18.0052 2.05806 18.1224C2.17527 18.2396 2.33424 18.3055 2.5 18.3055H5.625C5.79076 18.3055 5.94973 18.2396 6.06694 18.1224C6.18415 18.0052 6.25 17.8462 6.25 17.6805V16.4305H7.5C7.66576 16.4305 7.82473 16.3646 7.94194 16.2474C8.05915 16.1302 8.125 15.9712 8.125 15.8055V14.5555H9.375C9.4571 14.5555 9.53841 14.5394 9.61428 14.508C9.69015 14.4767 9.7591 14.4307 9.81719 14.3726L10.5641 13.625C11.4231 13.9039 12.3323 13.9933 13.2292 13.8871C14.1261 13.7808 14.9893 13.4815 15.7593 13.0097C16.5294 12.5378 17.1881 11.9047 17.69 11.1539C18.192 10.4031 18.5252 9.55236 18.6668 8.66039C18.8084 7.76842 18.755 6.85635 18.5103 5.987C18.2656 5.11764 17.8354 4.31164 17.2493 3.6245C16.6632 2.93736 15.9351 2.38541 15.1153 2.00665C14.2954 1.62788 13.4031 1.4313 12.5 1.43045ZM12.5 12.6805C11.8673 12.6815 11.2402 12.5619 10.6523 12.3281C10.5373 12.2782 10.41 12.264 10.2868 12.2874C10.1637 12.3108 10.0504 12.3707 9.96172 12.4594L9.11641 13.3055H7.5C7.33424 13.3055 7.17527 13.3713 7.05806 13.4885C6.94085 13.6057 6.875 13.7647 6.875 13.9305V15.1805H5.625C5.45924 15.1805 5.30027 15.2463 5.18306 15.3635C5.06585 15.4807 5 15.6397 5 15.8055V17.0555H3.125V14.814L7.72109 10.2187C7.80971 10.1301 7.86961 10.0168 7.89302 9.89362C7.91643 9.77046 7.90225 9.64311 7.85234 9.52811C7.4571 8.53424 7.39098 7.43982 7.66369 6.40559C7.9364 5.37137 8.53357 4.45185 9.36749 3.78209C10.2014 3.11234 11.2281 2.72764 12.2968 2.68452C13.3655 2.64139 14.4199 2.9421 15.3051 3.54248C16.1902 4.14287 16.8596 5.01128 17.2147 6.02016C17.5699 7.02905 17.5922 8.12524 17.2783 9.14772C16.9644 10.1702 16.3309 11.0651 15.4709 11.701C14.6109 12.3368 13.5696 12.6801 12.5 12.6805ZM15 6.11795C15 6.30337 14.945 6.48463 14.842 6.6388C14.739 6.79297 14.5926 6.91313 14.4213 6.98409C14.25 7.05504 14.0615 7.07361 13.8796 7.03744C13.6977 7.00126 13.5307 6.91197 13.3996 6.78086C13.2685 6.64975 13.1792 6.48271 13.143 6.30085C13.1068 6.11899 13.1254 5.93049 13.1964 5.75918C13.2673 5.58788 13.3875 5.44146 13.5417 5.33845C13.6958 5.23543 13.8771 5.18045 14.0625 5.18045C14.3111 5.18045 14.5496 5.27922 14.7254 5.45504C14.9012 5.63085 15 5.86931 15 6.11795Z" fill="white"/>
</svg>
