<svg width="15" height="22" viewBox="0 0 15 22" fill="none" xmlns="http://www.w3.org/2000/svg">
<path d="M12 0.5H3C2.40326 0.5 1.83097 0.737053 1.40901 1.15901C0.987053 1.58097 0.75 2.15326 0.75 2.75V19.25C0.75 19.8467 0.987053 20.419 1.40901 20.841C1.83097 21.2629 2.40326 21.5 3 21.5H12C12.5967 21.5 13.169 21.2629 13.591 20.841C14.0129 20.419 14.25 19.8467 14.25 19.25V2.75C14.25 2.15326 14.0129 1.58097 13.591 1.15901C13.169 0.737053 12.5967 0.5 12 0.5ZM12.75 19.25C12.75 19.4489 12.671 19.6397 12.5303 19.7803C12.3897 19.921 12.1989 20 12 20H3C2.80109 20 2.61032 19.921 2.46967 19.7803C2.32902 19.6397 2.25 19.4489 2.25 19.25V2.75C2.25 2.55109 2.32902 2.36032 2.46967 2.21967C2.61032 2.07902 2.80109 2 3 2H12C12.1989 2 12.3897 2.07902 12.5303 2.21967C12.671 2.36032 12.75 2.55109 12.75 2.75V19.25ZM11.25 4.25C11.25 4.44891 11.171 4.63968 11.0303 4.78033C10.8897 4.92098 10.6989 5 10.5 5H4.5C4.30109 5 4.11032 4.92098 3.96967 4.78033C3.82902 4.63968 3.75 4.44891 3.75 4.25C3.75 4.05109 3.82902 3.86032 3.96967 3.71967C4.11032 3.57902 4.30109 3.5 4.5 3.5H10.5C10.6989 3.5 10.8897 3.57902 11.0303 3.71967C11.171 3.86032 11.25 4.05109 11.25 4.25Z" fill="white"/>
</svg>
