<svg width="13" height="11" viewBox="0 0 13 11" fill="none" xmlns="http://www.w3.org/2000/svg">
<path d="M6.5 4.5C6.63261 4.5 6.75979 4.55268 6.85355 4.64645C6.94732 4.74021 7 4.86739 7 5V6H8C8.13261 6 8.25979 6.05268 8.35355 6.14645C8.44732 6.24021 8.5 6.36739 8.5 6.5C8.5 6.63261 8.44732 6.75979 8.35355 6.85355C8.25979 6.94732 8.13261 7 8 7H7V8C7 8.13261 6.94732 8.25979 6.85355 8.35355C6.75979 8.44732 6.63261 8.5 6.5 8.5C6.36739 8.5 6.24021 8.44732 6.14645 8.35355C6.05268 8.25979 6 8.13261 6 8V7H5C4.86739 7 4.74021 6.94732 4.64645 6.85355C4.55268 6.75979 4.5 6.63261 4.5 6.5C4.5 6.36739 4.55268 6.24021 4.64645 6.14645C4.74021 6.05268 4.86739 6 5 6H6V5C6 4.86739 6.05268 4.74021 6.14645 4.64645C6.24021 4.55268 6.36739 4.5 6.5 4.5ZM13 2.5V9.5C13 9.76522 12.8946 10.0196 12.7071 10.2071C12.5196 10.3946 12.2652 10.5 12 10.5H1C0.734784 10.5 0.48043 10.3946 0.292893 10.2071C0.105357 10.0196 0 9.76522 0 9.5V1C0 0.734784 0.105357 0.48043 0.292893 0.292893C0.48043 0.105357 0.734784 0 1 0H4.33313C4.54941 0.000536462 4.75978 0.0706595 4.93313 0.2L6.66687 1.5H12C12.2652 1.5 12.5196 1.60536 12.7071 1.79289C12.8946 1.98043 13 2.23478 13 2.5ZM1 3H4.33313L5.66687 2L4.33313 1H1V3ZM12 2.5H6.66687L4.93313 3.8C4.75978 3.92934 4.54941 3.99946 4.33313 4H1V9.5H12V2.5Z" fill="white"/>
</svg>
