<svg width="12" height="12" viewBox="0 0 12 12" fill="none" xmlns="http://www.w3.org/2000/svg">
<path d="M3.5 4C3.5 3.86739 3.55268 3.74021 3.64645 3.64645C3.74021 3.55268 3.86739 3.5 4 3.5H8C8.13261 3.5 8.25979 3.55268 8.35355 3.64645C8.44732 3.74021 8.5 3.86739 8.5 4C8.5 4.13261 8.44732 4.25979 8.35355 4.35355C8.25979 4.44732 8.13261 4.5 8 4.5H4C3.86739 4.5 3.74021 4.44732 3.64645 4.35355C3.55268 4.25979 3.5 4.13261 3.5 4ZM4 6.5H8C8.13261 6.5 8.25979 6.44732 8.35355 6.35355C8.44732 6.25979 8.5 6.13261 8.5 6C8.5 5.86739 8.44732 5.74021 8.35355 5.64645C8.25979 5.55268 8.13261 5.5 8 5.5H4C3.86739 5.5 3.74021 5.55268 3.64645 5.64645C3.55268 5.74021 3.5 5.86739 3.5 6C3.5 6.13261 3.55268 6.25979 3.64645 6.35355C3.74021 6.44732 3.86739 6.5 4 6.5ZM6 7.5H4C3.86739 7.5 3.74021 7.55268 3.64645 7.64645C3.55268 7.74021 3.5 7.86739 3.5 8C3.5 8.13261 3.55268 8.25979 3.64645 8.35355C3.74021 8.44732 3.86739 8.5 4 8.5H6C6.13261 8.5 6.25979 8.44732 6.35355 8.35355C6.44732 8.25979 6.5 8.13261 6.5 8C6.5 7.86739 6.44732 7.74021 6.35355 7.64645C6.25979 7.55268 6.13261 7.5 6 7.5ZM12 1V7.79313C12.0004 7.9245 11.9747 8.05464 11.9244 8.17599C11.8741 8.29734 11.8001 8.40748 11.7069 8.5L8.5 11.7069C8.40748 11.8001 8.29734 11.8741 8.17599 11.9244C8.05464 11.9747 7.9245 12.0004 7.79313 12H1C0.734784 12 0.48043 11.8946 0.292893 11.7071C0.105357 11.5196 0 11.2652 0 11V1C0 0.734784 0.105357 0.48043 0.292893 0.292893C0.48043 0.105357 0.734784 0 1 0H11C11.2652 0 11.5196 0.105357 11.7071 0.292893C11.8946 0.48043 12 0.734784 12 1ZM1 11H7.5V8C7.5 7.86739 7.55268 7.74021 7.64645 7.64645C7.74021 7.55268 7.86739 7.5 8 7.5H11V1H1V11ZM8.5 8.5V10.2937L10.2931 8.5H8.5Z" fill="#000"/>
</svg>
