<svg width="24" height="24" viewBox="0 0 24 24" fill="none" xmlns="http://www.w3.org/2000/svg">
<g clip-path="url(#clip0_230_3090)">
<path d="M12 24C18.6274 24 24 18.6274 24 12C24 5.37258 18.6274 0 12 0C5.37258 0 0 5.37258 0 12C0 18.6274 5.37258 24 12 24Z" fill="white"/>
<path fill-rule="evenodd" clip-rule="evenodd" d="M14.2301 4.53421L5.90521 5.1468C5.23393 5.2049 5 5.6425 5 6.16712V15.2658C5 15.6746 5.14582 16.024 5.49648 16.491L7.45344 19.0282C7.77488 19.4367 8.06701 19.5241 8.68081 19.4948L18.3484 18.9115C19.1661 18.8534 19.4 18.474 19.4 17.8325V7.59623C19.4 7.26461 19.2687 7.16881 18.8816 6.88642C18.8603 6.87088 18.8382 6.85478 18.8154 6.83804L16.158 4.97169C15.5154 4.50528 15.2524 4.44659 14.2301 4.53421ZM8.90001 7.42833C8.11071 7.48159 7.93136 7.49369 7.48312 7.12982L6.34327 6.2258C6.22701 6.1089 6.28532 5.96308 6.5772 5.93416L14.5806 5.35084C15.2523 5.29239 15.6027 5.52608 15.8657 5.73012L17.2384 6.72174C17.2969 6.75079 17.4427 6.92554 17.2674 6.92554L9.0019 7.42148L8.90001 7.42833ZM7.97937 17.7449V9.05463C7.97937 8.67559 8.09622 8.50049 8.44652 8.47107L17.9391 7.91717C18.2611 7.88801 18.4069 8.09229 18.4069 8.47107V17.103C18.4069 17.4824 18.3483 17.8036 17.8224 17.8325L8.73864 18.3577C8.21294 18.3866 7.97937 18.2119 7.97937 17.7449ZM16.9468 9.5208C17.005 9.78353 16.9468 10.046 16.6834 10.0755L16.2457 10.1627V16.5784C15.8657 16.7825 15.5153 16.8991 15.2233 16.8991C14.7558 16.8991 14.6387 16.7532 14.2885 16.316L11.4257 11.825V16.1702L12.3316 16.3745C12.3316 16.3745 12.3316 16.8991 11.6007 16.8991L9.58578 17.0159C9.52724 16.8991 9.58578 16.6078 9.79015 16.5494L10.316 16.4037V10.6586L9.5859 10.6002C9.52736 10.3374 9.67317 9.95864 10.0824 9.92924L12.2439 9.78364L15.2233 14.3331V10.3085L14.4637 10.2214C14.4054 9.9002 14.6387 9.66698 14.9308 9.63806L16.9468 9.5208Z" fill="white"/>
</g>
<defs>
<clipPath id="clip0_230_3090">
<rect width="24" height="24" fill="white"/>
</clipPath>
</defs>
</svg>
