<svg width="18" height="17" viewBox="0 0 18 17" fill="none" xmlns="http://www.w3.org/2000/svg">
<path d="M6.81261 7.27654C6.90765 7.22168 6.98656 7.14276 7.04142 7.04772C7.09627 6.95268 7.12514 6.84487 7.12511 6.73514V1.11014C7.12456 1.01049 7.10018 0.912426 7.05402 0.824116C7.00786 0.735806 6.94126 0.659812 6.85976 0.602474C6.77826 0.545136 6.68424 0.508115 6.58553 0.494499C6.48681 0.480883 6.38628 0.491066 6.2923 0.5242C4.46807 1.16984 2.93396 2.44502 1.96575 4.12051C0.997549 5.79599 0.658754 7.7619 1.01027 9.66483C1.02849 9.76323 1.07008 9.85582 1.13153 9.93481C1.19298 10.0138 1.27249 10.0769 1.3634 10.1187C1.44531 10.157 1.53468 10.1768 1.62511 10.1765C1.73481 10.1766 1.84259 10.1478 1.93761 10.0929L6.81261 7.27654ZM5.87511 2.05701V6.3742L2.13449 8.53279C2.12511 8.41483 2.12511 8.29608 2.12511 8.18045C2.12622 6.91355 2.4769 5.67151 3.13855 4.59111C3.80019 3.5107 4.74713 2.63382 5.87511 2.05701ZM16.0579 4.15858C16.0509 4.14451 16.0439 4.12967 16.0353 4.11561C16.0267 4.10154 16.0196 4.08983 16.0111 4.07733C15.2947 2.85373 14.2707 1.83879 13.0409 1.13327C11.811 0.427743 10.418 0.0561739 9.00011 0.0554504C8.83435 0.0554504 8.67538 0.121298 8.55817 0.238509C8.44096 0.355719 8.37511 0.51469 8.37511 0.68045V7.85467L2.21808 11.4406C2.14664 11.482 2.0841 11.5372 2.0341 11.6029C1.9841 11.6686 1.94762 11.7436 1.92677 11.8235C1.90592 11.9034 1.90112 11.9867 1.91263 12.0685C1.92415 12.1503 1.95176 12.2289 1.99386 12.3C2.8972 13.8382 4.28168 15.0365 5.93365 15.7097C7.58561 16.383 9.41324 16.4939 11.1345 16.0253C12.8557 15.5566 14.3749 14.5346 15.4576 13.1168C16.5403 11.699 17.1262 9.96434 17.1251 8.18045C17.1269 6.76961 16.759 5.38293 16.0579 4.15858ZM9.62511 1.33358C10.6164 1.42482 11.576 1.7301 12.4378 2.22836C13.2995 2.72662 14.0429 3.40597 14.6165 4.21951L9.62511 7.12654V1.33358ZM9.00011 15.0555C7.90903 15.0527 6.83412 14.7915 5.86336 14.2935C4.89259 13.7954 4.05357 13.0745 3.41496 12.1898L9.30558 8.75936L9.32277 8.74842L15.2423 5.30076C15.7255 6.34822 15.9373 7.50041 15.8583 8.65123C15.7793 9.80204 15.4121 10.9145 14.7903 11.8861C14.1685 12.8577 13.3123 13.6573 12.3005 14.2111C11.2886 14.765 10.1536 15.0553 9.00011 15.0555Z" fill="white"/>
</svg>
