<svg width="14" height="14" viewBox="0 0 14 14" fill="#fff" xmlns="http://www.w3.org/2000/svg">
<path d="M13.4324 12.25C12.4806 10.6044 11.0137 9.42437 9.3018 8.865C10.1486 8.36091 10.8065 7.5928 11.1744 6.67862C11.5424 5.76444 11.6001 4.75475 11.3387 3.8046C11.0773 2.85444 10.5112 2.01637 9.72741 1.41908C8.94359 0.821784 7.98538 0.498299 6.99993 0.498299C6.01447 0.498299 5.05626 0.821784 4.27244 1.41908C3.48863 2.01637 2.92255 2.85444 2.66114 3.8046C2.39973 4.75475 2.45744 5.76444 2.82542 6.67862C3.19339 7.5928 3.85128 8.36091 4.69805 8.865C2.98618 9.42375 1.5193 10.6037 0.567425 12.25C0.532518 12.3069 0.509365 12.3702 0.499331 12.4363C0.489297 12.5023 0.492585 12.5696 0.509003 12.6343C0.52542 12.6991 0.554634 12.7598 0.59492 12.8131C0.635206 12.8663 0.685749 12.911 0.743566 12.9444C0.801383 12.9778 0.865303 12.9992 0.931555 13.0075C0.997807 13.0158 1.06505 13.0108 1.12931 12.9926C1.19358 12.9745 1.25356 12.9437 1.30573 12.9021C1.3579 12.8604 1.40119 12.8087 1.43305 12.75C2.61055 10.715 4.6918 9.5 6.99993 9.5C9.30805 9.5 11.3893 10.715 12.5668 12.75C12.5987 12.8087 12.642 12.8604 12.6941 12.9021C12.7463 12.9437 12.8063 12.9745 12.8705 12.9926C12.9348 13.0108 13.002 13.0158 13.0683 13.0075C13.1345 12.9992 13.1985 12.9778 13.2563 12.9444C13.3141 12.911 13.3646 12.8663 13.4049 12.8131C13.4452 12.7598 13.4744 12.6991 13.4908 12.6343C13.5073 12.5696 13.5106 12.5023 13.5005 12.4363C13.4905 12.3702 13.4673 12.3069 13.4324 12.25ZM3.49993 5C3.49993 4.30776 3.7052 3.63108 4.08978 3.0555C4.47437 2.47993 5.02099 2.03133 5.66053 1.76642C6.30008 1.50151 7.00381 1.4322 7.68274 1.56725C8.36168 1.7023 8.98532 2.03564 9.4748 2.52513C9.96428 3.01461 10.2976 3.63825 10.4327 4.31718C10.5677 4.99612 10.4984 5.69985 10.2335 6.33939C9.9686 6.97893 9.51999 7.52556 8.94442 7.91014C8.36885 8.29473 7.69216 8.5 6.99993 8.5C6.07197 8.49901 5.18231 8.12994 4.52615 7.47378C3.86999 6.81761 3.50092 5.92795 3.49993 5Z" fill="#000"/>
</svg>
