<svg width="22" height="22" viewBox="0 0 22 22" fill="none" xmlns="http://www.w3.org/2000/svg">
<path d="M18.6202 17.3842C18.7835 17.5482 18.8751 17.7702 18.8751 18.0016C18.8751 18.2331 18.7835 18.4551 18.6202 18.6191C18.5009 18.7361 15.6834 21.5 11 21.5C6.91047 21.5 3.94203 19.05 2.25 17.1414V19.75C2.25 19.9821 2.15781 20.2046 1.99372 20.3687C1.82962 20.5328 1.60706 20.625 1.375 20.625C1.14294 20.625 0.920376 20.5328 0.756282 20.3687C0.592187 20.2046 0.5 19.9821 0.5 19.75V14.5C0.5 14.2679 0.592187 14.0454 0.756282 13.8813C0.920376 13.7172 1.14294 13.625 1.375 13.625H6.625C6.85706 13.625 7.07962 13.7172 7.24372 13.8813C7.40781 14.0454 7.5 14.2679 7.5 14.5C7.5 14.7321 7.40781 14.9546 7.24372 15.1187C7.07962 15.2828 6.85706 15.375 6.625 15.375H3.06375C4.41125 17.0539 7.17188 19.75 11 19.75C14.9375 19.75 17.3591 17.4028 17.3831 17.3787C17.5479 17.2155 17.7708 17.1244 18.0028 17.1254C18.2347 17.1264 18.4568 17.2195 18.6202 17.3842ZM20.625 1.375C20.3929 1.375 20.1704 1.46719 20.0063 1.63128C19.8422 1.79538 19.75 2.01794 19.75 2.25V4.85859C18.058 2.95 15.0895 0.5 11 0.5C6.31656 0.5 3.49906 3.26391 3.38094 3.38094C3.21646 3.54483 3.12383 3.76735 3.12342 3.99955C3.12301 4.23174 3.21485 4.45459 3.37875 4.61906C3.54265 4.78354 3.76517 4.87617 3.99736 4.87658C4.22955 4.87699 4.4524 4.78515 4.61687 4.62125C4.64094 4.59719 7.0625 2.25 11 2.25C14.8281 2.25 17.5887 4.94609 18.9362 6.625H15.375C15.1429 6.625 14.9204 6.71719 14.7563 6.88128C14.5922 7.04538 14.5 7.26794 14.5 7.5C14.5 7.73206 14.5922 7.95462 14.7563 8.11872C14.9204 8.28281 15.1429 8.375 15.375 8.375H20.625C20.8571 8.375 21.0796 8.28281 21.2437 8.11872C21.4078 7.95462 21.5 7.73206 21.5 7.5V2.25C21.5 2.01794 21.4078 1.79538 21.2437 1.63128C21.0796 1.46719 20.8571 1.375 20.625 1.375Z" fill="white"/>
</svg>
