<svg width="12" height="12" viewBox="0 0 12 12" fill="none" xmlns="http://www.w3.org/2000/svg">
<path d="M3.5 4.5H0.5C0.367392 4.5 0.240215 4.44732 0.146447 4.35355C0.0526785 4.25979 0 4.13261 0 4V1C0 0.867392 0.0526785 0.740215 0.146447 0.646447C0.240215 0.552679 0.367392 0.5 0.5 0.5C0.632608 0.5 0.759785 0.552679 0.853553 0.646447C0.947321 0.740215 1 0.867392 1 1V2.49062C1.96688 1.4 3.66313 0 6 0C8.67625 0 10.2863 1.57938 10.3538 1.64625C10.4477 1.7399 10.5007 1.86706 10.5009 1.99974C10.5011 2.13242 10.4487 2.25976 10.355 2.35375C10.2613 2.44774 10.1342 2.50067 10.0015 2.5009C9.86883 2.50114 9.74149 2.44865 9.6475 2.355C9.63062 2.33812 8.245 1 6 1C3.8125 1 2.23562 2.54063 1.465 3.5H3.5C3.63261 3.5 3.75979 3.55268 3.85355 3.64645C3.94732 3.74021 4 3.86739 4 4C4 4.13261 3.94732 4.25979 3.85355 4.35355C3.75979 4.44732 3.63261 4.5 3.5 4.5ZM11.5 7.5H8.5C8.36739 7.5 8.24021 7.55268 8.14645 7.64645C8.05268 7.74021 8 7.86739 8 8C8 8.13261 8.05268 8.25979 8.14645 8.35355C8.24021 8.44732 8.36739 8.5 8.5 8.5H10.535C9.76437 9.45938 8.1875 11 6 11C3.755 11 2.36937 9.66188 2.3525 9.645C2.25851 9.55135 2.13117 9.49886 1.99849 9.4991C1.86581 9.49933 1.73865 9.55226 1.645 9.64625C1.55135 9.74024 1.49886 9.86758 1.4991 10.0003C1.49933 10.1329 1.55226 10.2601 1.64625 10.3538C1.71375 10.4206 3.32375 12 6 12C8.33687 12 10.0331 10.6 11 9.50937V11C11 11.1326 11.0527 11.2598 11.1464 11.3536C11.2402 11.4473 11.3674 11.5 11.5 11.5C11.6326 11.5 11.7598 11.4473 11.8536 11.3536C11.9473 11.2598 12 11.1326 12 11V8C12 7.86739 11.9473 7.74021 11.8536 7.64645C11.7598 7.55268 11.6326 7.5 11.5 7.5Z" fill="#000"/>
</svg>
