<svg width="18" height="15" viewBox="0 0 18 15" fill="none" xmlns="http://www.w3.org/2000/svg">
<path d="M15.875 2.80545H9.20859L7.04141 1.18045C6.82472 1.01877 6.56176 0.931121 6.29141 0.93045H2.125C1.79348 0.93045 1.47554 1.06215 1.24112 1.29657C1.0067 1.53099 0.875 1.84893 0.875 2.18045V12.8055C0.875 13.137 1.0067 13.4549 1.24112 13.6893C1.47554 13.9238 1.79348 14.0555 2.125 14.0555H15.875C16.2065 14.0555 16.5245 13.9238 16.7589 13.6893C16.9933 13.4549 17.125 13.137 17.125 12.8055V4.05545C17.125 3.72393 16.9933 3.40599 16.7589 3.17157C16.5245 2.93715 16.2065 2.80545 15.875 2.80545ZM2.125 2.18045H6.29141L7.95859 3.43045L6.29141 4.68045H2.125V2.18045ZM15.875 12.8055H2.125V5.93045H6.29141C6.56176 5.92978 6.82472 5.84213 7.04141 5.68045L9.20859 4.05545H15.875V12.8055Z" fill="white"/>
</svg>
