<svg width="18" height="18" viewBox="0 0 18 18" fill="none" xmlns="http://www.w3.org/2000/svg">
<path d="M8.99979 5.24998C8.25811 5.24998 7.53309 5.46991 6.9164 5.88196C6.29972 6.29402 5.81907 6.87969 5.53524 7.56491C5.25142 8.25014 5.17715 9.00414 5.32185 9.73156C5.46654 10.459 5.82369 11.1272 6.34814 11.6516C6.87259 12.1761 7.54077 12.5332 8.2682 12.6779C8.99563 12.8226 9.74963 12.7484 10.4349 12.4645C11.1201 12.1807 11.7057 11.7 12.1178 11.0834C12.5299 10.4667 12.7498 9.74166 12.7498 8.99998C12.7488 8.00573 12.3533 7.0525 11.6503 6.34947C10.9473 5.64643 9.99404 5.25101 8.99979 5.24998ZM8.99979 11.5C8.50534 11.5 8.02199 11.3534 7.61087 11.0786C7.19974 10.8039 6.87931 10.4135 6.69009 9.95668C6.50087 9.49987 6.45137 8.9972 6.54783 8.51225C6.64429 8.0273 6.88239 7.58184 7.23203 7.23221C7.58166 6.88258 8.02711 6.64447 8.51207 6.54801C8.99702 6.45155 9.49969 6.50106 9.9565 6.69028C10.4133 6.8795 10.8038 7.19993 11.0785 7.61105C11.3532 8.02217 11.4998 8.50552 11.4998 8.99998C11.4998 9.66302 11.2364 10.2989 10.7676 10.7677C10.2987 11.2366 9.66283 11.5 8.99979 11.5ZM15.8748 9.16873C15.8779 9.05623 15.8779 8.94373 15.8748 8.83123L17.0404 7.37498C17.1015 7.29852 17.1438 7.20877 17.1639 7.11297C17.184 7.01716 17.1813 6.91798 17.156 6.82341C16.965 6.10513 16.6791 5.41548 16.306 4.77263C16.2572 4.6885 16.1894 4.61694 16.108 4.56364C16.0266 4.51034 15.9339 4.47677 15.8373 4.4656L13.9842 4.25935C13.9071 4.1781 13.829 4.09998 13.7498 4.02498L13.531 2.16716C13.5198 2.07045 13.4861 1.97771 13.4327 1.89633C13.3792 1.81494 13.3075 1.74717 13.2232 1.69841C12.5801 1.32603 11.8905 1.04047 11.1724 0.849193C11.0778 0.824035 10.9786 0.821462 10.8828 0.841681C10.787 0.861901 10.6973 0.904347 10.6209 0.9656L9.16854 2.12497C9.05604 2.12497 8.94354 2.12497 8.83104 2.12497L7.37479 0.961693C7.29833 0.900575 7.20859 0.85827 7.11278 0.838186C7.01698 0.818103 6.9178 0.820803 6.82323 0.846068C6.10507 1.0375 5.41546 1.32332 4.77245 1.69607C4.68832 1.74492 4.61676 1.81273 4.56346 1.89411C4.51015 1.97548 4.47658 2.06818 4.46542 2.16482L4.25917 4.02107C4.17792 4.09867 4.09979 4.1768 4.02479 4.25544L2.16698 4.46872C2.07027 4.47998 1.97753 4.51367 1.89614 4.56711C1.81476 4.62055 1.74699 4.69227 1.69823 4.77654C1.32584 5.41963 1.04029 6.10923 0.84901 6.82732C0.823852 6.92195 0.821278 7.02116 0.841498 7.11697C0.861718 7.21277 0.904164 7.30249 0.965417 7.37888L2.12479 8.83123C2.12479 8.94373 2.12479 9.05623 2.12479 9.16873L0.96151 10.625C0.900392 10.7014 0.858087 10.7912 0.838003 10.887C0.81792 10.9828 0.82062 11.082 0.845885 11.1765C1.03697 11.8948 1.32281 12.5845 1.69589 13.2273C1.74473 13.3114 1.81255 13.383 1.89392 13.4363C1.9753 13.4896 2.068 13.5232 2.16464 13.5344L4.01776 13.7406C4.09537 13.8219 4.17349 13.9 4.25214 13.975L4.46854 15.8328C4.47979 15.9295 4.51348 16.0222 4.56692 16.1036C4.62037 16.185 4.69208 16.2528 4.77635 16.3015C5.41945 16.6739 6.10904 16.9595 6.82714 17.1508C6.92176 17.1759 7.02098 17.1785 7.11679 17.1583C7.21259 17.1381 7.30231 17.0956 7.3787 17.0344L8.83104 15.875C8.94354 15.8781 9.05604 15.8781 9.16854 15.875L10.6248 17.0406C10.7013 17.1017 10.791 17.144 10.8868 17.1641C10.9826 17.1842 11.0818 17.1815 11.1764 17.1562C11.8946 16.9651 12.5843 16.6793 13.2271 16.3062C13.3113 16.2574 13.3828 16.1896 13.4361 16.1082C13.4894 16.0268 13.523 15.9341 13.5342 15.8375L13.7404 13.9844C13.8217 13.9073 13.8998 13.8291 13.9748 13.75L15.8326 13.5312C15.9293 13.52 16.0221 13.4863 16.1034 13.4328C16.1848 13.3794 16.2526 13.3077 16.3014 13.2234C16.6737 12.5803 16.9593 11.8907 17.1506 11.1726C17.1757 11.078 17.1783 10.9788 17.1581 10.883C17.1379 10.7872 17.0954 10.6975 17.0342 10.6211L15.8748 9.16873ZM14.617 8.66091C14.6303 8.88676 14.6303 9.11319 14.617 9.33904C14.6077 9.49366 14.6561 9.64623 14.7529 9.76716L15.8615 11.1523C15.7343 11.5566 15.5714 11.9488 15.3748 12.3242L13.6092 12.5242C13.4554 12.5413 13.3134 12.6148 13.2107 12.7304C13.0603 12.8996 12.9002 13.0597 12.731 13.2101C12.6153 13.3128 12.5419 13.4548 12.5248 13.6086L12.3287 15.3726C11.9533 15.5694 11.5611 15.7322 11.1568 15.8594L9.77089 14.7508C9.65998 14.6621 9.52222 14.6139 9.38026 14.614H9.34276C9.11691 14.6273 8.89048 14.6273 8.66464 14.614C8.51001 14.6047 8.35744 14.6532 8.23651 14.75L6.84745 15.8594C6.44318 15.7321 6.05101 15.5693 5.67557 15.3726L5.47557 13.6094C5.45851 13.4556 5.38502 13.3136 5.26932 13.2109C5.10019 13.0605 4.94002 12.9004 4.78964 12.7312C4.68693 12.6155 4.54496 12.542 4.3912 12.525L2.62714 12.3281C2.43041 11.9527 2.26753 11.5605 2.14042 11.1562L3.24901 9.77029C3.34581 9.64936 3.39426 9.49679 3.38495 9.34216C3.37167 9.11632 3.37167 8.88988 3.38495 8.66404C3.39426 8.50941 3.34581 8.35684 3.24901 8.23591L2.14042 6.84763C2.26762 6.44336 2.4305 6.05119 2.62714 5.67576L4.39042 5.47576C4.54418 5.45869 4.68615 5.3852 4.78885 5.26951C4.93924 5.10037 5.09941 4.9402 5.26854 4.78982C5.3847 4.68704 5.45849 4.54475 5.47557 4.3906L5.67167 2.62732C6.04706 2.43059 6.43924 2.26771 6.84354 2.1406L8.22948 3.24919C8.35041 3.34599 8.50298 3.39444 8.65761 3.38513C8.88345 3.37185 9.10988 3.37185 9.33573 3.38513C9.49035 3.39444 9.64292 3.34599 9.76385 3.24919L11.1521 2.1406C11.5564 2.26781 11.9486 2.43069 12.324 2.62732L12.524 4.3906C12.5411 4.54436 12.6146 4.68633 12.7303 4.78904C12.8994 4.93942 13.0596 5.09959 13.2099 5.26872C13.3127 5.38442 13.4546 5.45791 13.6084 5.47498L15.3724 5.67107C15.5692 6.04646 15.7321 6.43864 15.8592 6.84294L14.7506 8.22888C14.6528 8.35083 14.6043 8.50497 14.6146 8.66091H14.617Z" fill="white"/>
</svg>
