<svg width="24" height="24" viewBox="0 0 24 24" fill="none" xmlns="http://www.w3.org/2000/svg">
<g clip-path="url(#clip0_230_2723)">
<path fill-rule="evenodd" clip-rule="evenodd" d="M0 11.9998C0 5.37255 5.37269 0 11.9999 0C18.6275 0 24 5.37255 24 11.9998C24 18.6277 18.6275 24 11.9999 24C5.37269 24 0 18.6277 0 11.9998ZM18.8105 10.4778C15.0007 8.21531 8.71649 8.00727 5.07958 9.11109C4.49543 9.28835 3.87782 8.95866 3.70098 8.37465C3.52399 7.79021 3.85326 7.17302 4.4377 6.99548C8.61276 5.72823 15.5529 5.97295 19.9388 8.57647C20.4643 8.88838 20.6365 9.56681 20.3251 10.0913C20.0135 10.6166 19.3345 10.7897 18.8105 10.4778ZM17.4182 14.1324C17.8513 14.3987 18.4184 14.2627 18.6857 13.829C18.952 13.3963 18.8157 12.8289 18.3825 12.5622C14.7345 10.3202 9.39804 9.68936 5.10542 10.992C4.61893 11.1402 4.34414 11.654 4.49092 12.1412C4.63897 12.6276 5.15369 12.9023 5.64088 12.7551C9.3986 11.6144 14.2421 12.1801 17.4182 14.1324ZM16.2266 17.2924C16.5736 17.5047 17.0271 17.3956 17.2395 17.0472C17.4518 16.7 17.3424 16.2463 16.995 16.0342C13.8798 14.1305 10.0179 13.6877 5.51569 14.7168C5.1184 14.8073 4.87085 15.2025 4.96174 15.5989C5.05207 15.9952 5.44724 16.2436 5.84369 16.1527C9.95778 15.2131 13.4511 15.5961 16.2266 17.2924Z" fill="#1ED760"/>
</g>
<defs>
<clipPath id="clip0_230_2723">
<rect width="24" height="24" fill="white"/>
</clipPath>
</defs>
</svg>
