<svg width="18" height="18" viewBox="0 0 18 18" fill="none" xmlns="http://www.w3.org/2000/svg">
<path d="M17.6875 6.60078C17.6118 6.36749 17.4692 6.16161 17.2773 6.00881C17.0855 5.856 16.8529 5.763 16.6086 5.7414L11.9688 5.3414L10.15 1.0164C10.0553 0.789462 9.8956 0.595612 9.69097 0.45926C9.48633 0.322909 9.24592 0.250153 9.00002 0.250153C8.75411 0.250153 8.51371 0.322909 8.30907 0.45926C8.10443 0.595612 7.94471 0.789462 7.85002 1.0164L6.03674 5.3414L1.39142 5.74375C1.14614 5.76436 0.912399 5.85693 0.719516 6.00985C0.526633 6.16278 0.383193 6.36924 0.307183 6.60336C0.231173 6.83748 0.225978 7.08883 0.292249 7.32589C0.358519 7.56295 0.493305 7.77517 0.679705 7.93593L4.20392 11.0156L3.14767 15.5891C3.09182 15.8284 3.10776 16.0789 3.19349 16.3092C3.27923 16.5395 3.43095 16.7395 3.6297 16.884C3.82845 17.0286 4.0654 17.1113 4.31093 17.122C4.55647 17.1326 4.79968 17.0706 5.01017 16.9437L8.99455 14.5219L12.9875 16.9437C13.198 17.0706 13.4412 17.1326 13.6868 17.122C13.9323 17.1113 14.1692 17.0286 14.368 16.884C14.5667 16.7395 14.7185 16.5395 14.8042 16.3092C14.8899 16.0789 14.9059 15.8284 14.85 15.5891L13.7945 11.0109L17.318 7.93593C17.5044 7.77462 17.6389 7.56179 17.7046 7.32423C17.7704 7.08667 17.7644 6.83497 17.6875 6.60078ZM16.4985 6.9914L12.975 10.0664C12.8035 10.2156 12.676 10.4087 12.606 10.6249C12.5361 10.8412 12.5265 11.0724 12.5781 11.2937L13.6367 15.875L9.64689 13.4531C9.45223 13.3346 9.22871 13.2719 9.0008 13.2719C8.77288 13.2719 8.54936 13.3346 8.3547 13.4531L4.37033 15.875L5.42189 11.2969C5.47357 11.0755 5.46393 10.8443 5.394 10.6281C5.32407 10.4118 5.1965 10.2187 5.02502 10.0695L1.50002 6.99609C1.49973 6.99376 1.49973 6.99139 1.50002 6.98906L6.14377 6.5875C6.37049 6.56751 6.58745 6.48601 6.77125 6.35177C6.95505 6.21754 7.09871 6.03567 7.18674 5.82578L9.00002 1.50625L10.8125 5.82578C10.9005 6.03567 11.0442 6.21754 11.228 6.35177C11.4118 6.48601 11.6288 6.56751 11.8555 6.5875L16.5 6.98906C16.5 6.98906 16.5 6.99375 16.5 6.99453L16.4985 6.9914Z" fill="white"/>
</svg>
