<svg width="18" height="13" viewBox="0 0 18 13" fill="none" xmlns="http://www.w3.org/2000/svg">
<path d="M2.84801 11.2287C2.4536 11.2287 2.09233 11.1326 1.7642 10.9403C1.43608 10.7448 1.17424 10.483 0.978693 10.1548C0.786458 9.8267 0.690341 9.46544 0.690341 9.07102C0.690341 8.6733 0.786458 8.31037 0.978693 7.98224C1.17424 7.65412 1.43608 7.39228 1.7642 7.19673C2.09233 7.00118 2.4536 6.90341 2.84801 6.90341H4.00142V4.90483H2.84801C2.4536 4.90483 2.09233 4.80871 1.7642 4.61648C1.43608 4.42093 1.17424 4.16075 0.978693 3.83594C0.786458 3.50781 0.690341 3.14489 0.690341 2.74716C0.690341 2.34943 0.786458 1.98816 0.978693 1.66335C1.17424 1.33523 1.43608 1.07505 1.7642 0.882812C2.09233 0.687263 2.4536 0.589488 2.84801 0.589488C3.24574 0.589488 3.60866 0.687263 3.93679 0.882812C4.26491 1.07505 4.52675 1.33523 4.7223 1.66335C4.91785 1.98816 5.01562 2.34943 5.01562 2.74716V3.89062H7.0142V2.74716C7.0142 2.34943 7.11032 1.98816 7.30256 1.66335C7.49811 1.33523 7.75829 1.07505 8.0831 0.882812C8.41122 0.687263 8.77415 0.589488 9.17188 0.589488C9.5696 0.589488 9.93087 0.687263 10.2557 0.882812C10.5838 1.07505 10.844 1.33523 11.0362 1.66335C11.2318 1.98816 11.3295 2.34943 11.3295 2.74716C11.3295 3.14489 11.2318 3.50781 11.0362 3.83594C10.844 4.16075 10.5838 4.42093 10.2557 4.61648C9.93087 4.80871 9.5696 4.90483 9.17188 4.90483H8.02841V6.90341H9.17188C9.5696 6.90341 9.93087 7.00118 10.2557 7.19673C10.5838 7.39228 10.844 7.65412 11.0362 7.98224C11.2318 8.31037 11.3295 8.6733 11.3295 9.07102C11.3295 9.46544 11.2318 9.8267 11.0362 10.1548C10.844 10.483 10.5838 10.7448 10.2557 10.9403C9.93087 11.1326 9.5696 11.2287 9.17188 11.2287C8.77415 11.2287 8.41122 11.1326 8.0831 10.9403C7.75829 10.7448 7.49811 10.483 7.30256 10.1548C7.11032 9.8267 7.0142 9.46544 7.0142 9.07102V7.91761H5.01562V9.07102C5.01562 9.46544 4.91785 9.8267 4.7223 10.1548C4.52675 10.483 4.26491 10.7448 3.93679 10.9403C3.60866 11.1326 3.24574 11.2287 2.84801 11.2287ZM2.84801 10.2145C3.06013 10.2145 3.25237 10.1631 3.42472 10.0604C3.60038 9.95762 3.73958 9.82008 3.84233 9.64773C3.94839 9.47206 4.00142 9.27983 4.00142 9.07102V7.91761H2.84801C2.6392 7.91761 2.44697 7.97064 2.27131 8.0767C2.09896 8.17945 1.96141 8.31866 1.85866 8.49432C1.75592 8.66667 1.70455 8.8589 1.70455 9.07102C1.70455 9.27983 1.75592 9.47206 1.85866 9.64773C1.96141 9.82008 2.09896 9.95762 2.27131 10.0604C2.44697 10.1631 2.6392 10.2145 2.84801 10.2145ZM2.84801 3.89062H4.00142V2.74716C4.00142 2.53504 3.94839 2.3428 3.84233 2.17045C3.73958 1.99811 3.60038 1.86056 3.42472 1.75781C3.25237 1.65507 3.06013 1.60369 2.84801 1.60369C2.6392 1.60369 2.44697 1.65507 2.27131 1.75781C2.09896 1.86056 1.96141 1.99811 1.85866 2.17045C1.75592 2.3428 1.70455 2.53504 1.70455 2.74716C1.70455 2.95928 1.75592 3.15317 1.85866 3.32883C1.96141 3.50118 2.09896 3.63873 2.27131 3.74148C2.44697 3.84091 2.6392 3.89062 2.84801 3.89062ZM8.02841 3.89062H9.17188C9.384 3.89062 9.57623 3.84091 9.74858 3.74148C9.92093 3.63873 10.0585 3.50118 10.1612 3.32883C10.264 3.15317 10.3153 2.95928 10.3153 2.74716C10.3153 2.53504 10.264 2.3428 10.1612 2.17045C10.0585 1.99811 9.92093 1.86056 9.74858 1.75781C9.57623 1.65507 9.384 1.60369 9.17188 1.60369C8.95975 1.60369 8.76586 1.65507 8.5902 1.75781C8.41785 1.86056 8.2803 1.99811 8.17756 2.17045C8.07813 2.3428 8.02841 2.53504 8.02841 2.74716V3.89062ZM9.17188 10.2145C9.384 10.2145 9.57623 10.1631 9.74858 10.0604C9.92093 9.95762 10.0585 9.82008 10.1612 9.64773C10.264 9.47206 10.3153 9.27983 10.3153 9.07102C10.3153 8.8589 10.264 8.66667 10.1612 8.49432C10.0585 8.31866 9.92093 8.17945 9.74858 8.0767C9.57623 7.97064 9.384 7.91761 9.17188 7.91761H8.02841V9.07102C8.02841 9.27983 8.07813 9.47206 8.17756 9.64773C8.2803 9.82008 8.41785 9.95762 8.5902 10.0604C8.76586 10.1631 8.95975 10.2145 9.17188 10.2145ZM5.01562 6.90341H7.0142V4.90483H5.01562V6.90341ZM17.687 0.340908L14.4057 12.5312H13.3319L16.6131 0.340908H17.687Z" fill="white" fill-opacity="0.2"/>
</svg>
