<svg width="14" height="14" viewBox="0 0 14 14" fill="none" xmlns="http://www.w3.org/2000/svg">
<path d="M1.19194 10.3081C1.07473 10.1908 0.91576 10.125 0.75 10.125C0.58424 10.125 0.425269 10.1908 0.308058 10.3081C0.190848 10.4253 0.125 10.5842 0.125 10.75C0.125 10.9158 0.190848 11.0747 0.308058 11.1919L2.80806 13.6919C2.92527 13.8092 3.08424 13.875 3.25 13.875C3.41576 13.875 3.57473 13.8092 3.69194 13.6919L6.19171 11.1922C6.30892 11.075 6.375 10.9158 6.375 10.75C6.375 10.5842 6.30915 10.4253 6.19194 10.3081C6.07473 10.1908 5.91576 10.125 5.75 10.125C5.58424 10.125 5.42527 10.1908 5.30806 10.3081L3.25 12.3661L1.19194 10.3081Z" fill="white"/>
<path d="M2.625 0.75V13.25C2.625 13.5952 2.90482 13.875 3.25 13.875C3.59518 13.875 3.875 13.5952 3.875 13.25V0.75C3.875 0.404822 3.59518 0.125 3.25 0.125C2.90482 0.125 2.625 0.404822 2.625 0.75Z" fill="white"/>
<path d="M12.8077 3.69162C12.9249 3.80883 13.0842 3.875 13.25 3.875C13.4158 3.875 13.5747 3.80915 13.6919 3.69194C13.8092 3.57473 13.875 3.41576 13.875 3.25C13.875 3.08424 13.8092 2.92527 13.6919 2.80806L11.1919 0.308058C11.0747 0.190848 10.9158 0.125 10.75 0.125C10.5842 0.125 10.4253 0.190848 10.3081 0.308058L7.80806 2.80806C7.69085 2.92527 7.625 3.08424 7.625 3.25C7.625 3.26001 7.62524 3.27002 7.62572 3.28002C7.63318 3.43522 7.69819 3.58207 7.80806 3.69194C7.92527 3.80915 8.08424 3.875 8.25 3.875C8.41576 3.875 8.57473 3.80915 8.69194 3.69194L10.75 1.63388L12.8077 3.69162Z" fill="white"/>
<path d="M11.375 13.25V0.75C11.375 0.404822 11.0952 0.125 10.75 0.125C10.4048 0.125 10.125 0.404822 10.125 0.75V13.25C10.125 13.5952 10.4048 13.875 10.75 13.875C11.0952 13.875 11.375 13.5952 11.375 13.25Z" fill="white"/>
</svg>
