<svg width="27" height="27" viewBox="0 0 27 27" fill="none" xmlns="http://www.w3.org/2000/svg">
<path fill-rule="evenodd" clip-rule="evenodd" d="M10.5 3.76308L9.23888 7.17108C8.88438 8.12909 8.12905 8.88443 7.17103 9.23893L3.76304 10.5L7.17103 11.7611C8.12905 12.1156 8.88438 12.8709 9.23888 13.8289L10.5 17.2369L11.761 13.8289C12.1155 12.8709 12.8709 12.1156 13.8289 11.7611L17.2369 10.5L13.8289 9.23893C12.8709 8.88443 12.1155 8.1291 11.761 7.17108L10.5 3.76308ZM11.9067 1.80176C11.4235 0.49583 9.57641 0.49583 9.09318 1.80176L7.36318 6.477C7.21125 6.88758 6.88754 7.2113 6.47696 7.36323L1.80171 9.09322C0.495784 9.57646 0.495784 11.4235 1.80171 11.9068L6.47696 13.6368C6.88754 13.7887 7.21125 14.1124 7.36318 14.523L9.09318 19.1982C9.57641 20.5042 11.4235 20.5042 11.9067 19.1982L13.6367 14.523C13.7887 14.1124 14.1124 13.7887 14.523 13.6368L19.1982 11.9068C20.5041 11.4235 20.5041 9.57646 19.1982 9.09322L14.523 7.36323C14.1124 7.2113 13.7887 6.88758 13.6367 6.477L11.9067 1.80176Z" fill="#000"/>
<path fill-rule="evenodd" clip-rule="evenodd" d="M20.4998 17.3224L20.0404 18.5637C19.7872 19.248 19.2477 19.7875 18.5634 20.0407L17.3221 20.5L18.5634 20.9594C19.2477 21.2126 19.7872 21.7521 20.0404 22.4364L20.4998 23.6777L20.9591 22.4364C21.2123 21.7521 21.7518 21.2126 22.4361 20.9594L23.6774 20.5L22.4361 20.0407C21.7518 19.7875 21.2123 19.248 20.9591 18.5637L20.4998 17.3224ZM21.4376 15.5346C21.1155 14.6639 19.8841 14.6639 19.5619 15.5346L18.6337 18.0431C18.5324 18.3168 18.3166 18.5327 18.0428 18.6339L15.5343 19.5622C14.6636 19.8844 14.6636 21.1157 15.5343 21.4379L18.0428 22.3662C18.3166 22.4674 18.5324 22.6833 18.6337 22.957L19.5619 25.4655C19.8841 26.3362 21.1155 26.3362 21.4376 25.4655L22.3659 22.957C22.4672 22.6833 22.683 22.4674 22.9567 22.3662L25.4653 21.4379C26.3359 21.1157 26.3359 19.8844 25.4653 19.5622L22.9567 18.6339C22.683 18.5327 22.4672 18.3168 22.3659 18.0431L21.4376 15.5346Z" fill="#000"/>
</svg>
